<svg width="38" height="14" viewBox="0 0 38 14" fill="none" xmlns="http://www.w3.org/2000/svg">
<g id="Logo">
<path id="logo" fill-rule="evenodd" clip-rule="evenodd" d="M32.1355 0.929577C31.9312 1.13471 31.4148 1.89197 30.7998 2.79376L30.7998 2.79379C29.6413 4.49257 28.133 6.70423 27.7023 6.70423C27.3024 6.70423 26.7246 5.69553 26.3124 4.97591C26.2474 4.86237 26.1864 4.75602 26.131 4.66197C24.714 2.28169 23.1849 0 20.5614 0C19.3128 0 18.0221 0.661972 17.1944 1.61972C16.4789 0.619718 15.6792 0 13.8695 0C12.186 0 10.6007 0.830986 10.0535 2.28169C9.88517 1.23944 9.53444 0.239437 7.65452 0.056338C4.3296 -0.267606 2.09895 2.35211 1.46764 5.29577C1.07482 7.15493 2.2673 9.32394 4.77853 9.32394C6.26563 9.32394 7.43006 8.71831 7.80884 7.95775C7.80884 7.95775 7.48617 11.662 4.25945 11.662C2.4076 11.662 1.14497 10.4366 1.14497 10.4366L0.836324 11.7183C0.54171 12.9577 2.08492 14 3.89469 14C6.53219 14 8.83298 12.3099 9.53444 10.6479C10.2359 8.97183 11.2881 4.50704 11.2881 4.50704C11.6248 3.08451 12.5647 2.28169 13.5608 2.28169C14.6972 2.28169 15.3145 3.01408 14.9076 4.73239L13.9536 8.74648C13.659 9.98592 14.2623 10.6338 15.3846 10.6338H16.0721L17.5311 4.43662C17.8678 3.01408 18.7516 2.28169 19.7898 2.28169C20.9262 2.28169 21.5154 3.01408 21.1085 4.73239L20.1546 8.74648C19.888 9.85916 20.351 10.6338 21.7539 10.6338H22.0625C22.0625 10.6338 22.3992 5.26761 23.6619 5.26761C24.2796 5.26761 24.9312 6.57845 25.6053 7.93456C26.0794 8.88822 26.5646 9.86427 27.0569 10.4225C27.0569 10.4225 27.4918 10.8451 27.9127 10.4225C28.0341 10.2958 28.881 9.15912 29.967 7.70141L29.9671 7.70138L29.9672 7.70127C32.02 4.94597 34.9272 1.04396 35.4043 0.647887C34.773 0.126761 33.2578 -0.183099 32.1355 0.929577ZM8.53827 4.71831C8.14546 6.38028 6.99506 7.33803 5.70437 7.33803C4.4698 7.33803 3.88057 6.33803 4.20325 4.98591C4.56801 3.42253 5.83064 2.30986 7.16341 2.30986C8.29978 2.29577 8.93109 3.09859 8.53827 4.71831ZM36.5266 0.169014C36.8914 0.169014 37.2001 0.478873 37.2001 0.84507C37.2001 1.21127 36.8914 1.52113 36.5266 1.52113C36.1619 1.52113 35.8532 1.21127 35.8532 0.84507C35.8532 0.478873 36.1619 0.169014 36.5266 0.169014ZM36.5265 1.40845C36.8352 1.40845 37.0877 1.15493 37.0877 0.845069C37.0877 0.53521 36.8352 0.281689 36.5265 0.281689C36.2179 0.281689 35.9654 0.53521 35.9654 0.845069C35.9794 1.15493 36.2179 1.40845 36.5265 1.40845ZM36.5686 0.450703H36.274H36.26V1.22535H36.4003V0.915492H36.4985L36.6949 1.22535H36.8492L36.6528 0.901407C36.751 0.887323 36.8352 0.830985 36.8352 0.69014C36.8352 0.53521 36.751 0.450703 36.5686 0.450703ZM36.4146 0.788735H36.5128C36.597 0.788735 36.6952 0.788735 36.6952 0.676059C36.6952 0.577467 36.597 0.563383 36.5128 0.563383H36.4146V0.788735Z" fill="white"/>
</g>
</svg>
