<svg width="32" height="32" viewBox="0 0 32 32" fill="none" xmlns="http://www.w3.org/2000/svg">
<path d="M26 6H4V9.17L11.41 16.59L12 17.17V26H16V24H18V26C18 26.5304 17.7893 27.0391 17.4142 27.4142C17.0391 27.7893 16.5304 28 16 28H12C11.4696 28 10.9609 27.7893 10.5858 27.4142C10.2107 27.0391 10 26.5304 10 26V18L2.59 10.59C2.40283 10.4039 2.25434 10.1827 2.15308 9.93897C2.05182 9.69526 1.99979 9.43391 2 9.17V6C2 5.46957 2.21071 4.96086 2.58579 4.58579C2.96086 4.21071 3.46957 4 4 4H26V6Z" fill="currentColor"/>
<path d="M29.71 11.29L26.71 8.29C26.617 8.19627 26.5064 8.12188 26.3846 8.07111C26.2627 8.02034 26.132 7.9942 26 7.9942C25.868 7.9942 25.7373 8.02034 25.6154 8.07111C25.4936 8.12188 25.383 8.19627 25.29 8.29L16 17.59V22H20.41L29.71 12.71C29.8037 12.617 29.8781 12.5064 29.9289 12.3846C29.9797 12.2627 30.0058 12.132 30.0058 12C30.0058 11.868 29.9797 11.7373 29.9289 11.6154C29.8781 11.4936 29.8037 11.383 29.71 11.29ZM19.59 20H18V18.41L23 13.41L24.59 15L19.59 20ZM26 13.59L24.41 12L26 10.41L27.59 12L26 13.59Z" fill="currentColor"/>
</svg>
