<svg width="32" height="32" viewBox="0 0 32 32" fill="none" xmlns="http://www.w3.org/2000/svg">
<path d="M20 9C20.5523 9 21 8.55228 21 8C21 7.44772 20.5523 7 20 7C19.4477 7 19 7.44772 19 8C19 8.55228 19.4477 9 20 9Z" fill="currentColor"/>
<path d="M23 9C23.5523 9 24 8.55228 24 8C24 7.44772 23.5523 7 23 7C22.4477 7 22 7.44772 22 8C22 8.55228 22.4477 9 23 9Z" fill="currentColor"/>
<path d="M26 9C26.5523 9 27 8.55228 27 8C27 7.44772 26.5523 7 26 7C25.4477 7 25 7.44772 25 8C25 8.55228 25.4477 9 26 9Z" fill="currentColor"/>
<path d="M28 4H4C3.46973 4.00053 2.96133 4.21141 2.58637 4.58637C2.21141 4.96133 2.00053 5.46973 2 6V26C2.00053 26.5303 2.21141 27.0387 2.58637 27.4136C2.96133 27.7886 3.46973 27.9995 4 28H28C28.5303 27.9995 29.0387 27.7886 29.4136 27.4136C29.7886 27.0387 29.9995 26.5303 30 26V6C29.9995 5.46973 29.7886 4.96133 29.4136 4.58637C29.0387 4.21141 28.5303 4.00053 28 4ZM28 6V10H4V6H28ZM4 12H10V26H4V12ZM12 26V12H28V26H12Z" fill="currentColor"/>
</svg>
