<svg width="32" height="32" viewBox="0 0 32 32" fill="none" xmlns="http://www.w3.org/2000/svg">
<path d="M17 22V14H13V16H15V22H12V24H20V22H17ZM16 8C15.7033 8 15.4133 8.08797 15.1666 8.2528C14.92 8.41762 14.7277 8.65189 14.6142 8.92597C14.5006 9.20006 14.4709 9.50166 14.5288 9.79264C14.5867 10.0836 14.7296 10.3509 14.9393 10.5607C15.1491 10.7704 15.4164 10.9133 15.7074 10.9712C15.9983 11.0291 16.2999 10.9994 16.574 10.8858C16.8481 10.7723 17.0824 10.58 17.2472 10.3334C17.412 10.0867 17.5 9.79667 17.5 9.5C17.5 9.10218 17.342 8.72064 17.0607 8.43934C16.7794 8.15804 16.3978 8 16 8Z" fill="currentColor"/>
<path d="M26 28H6C5.46973 27.9995 4.96133 27.7886 4.58637 27.4136C4.21141 27.0387 4.00053 26.5303 4 26V6C4.00053 5.46973 4.21141 4.96133 4.58637 4.58637C4.96133 4.21141 5.46973 4.00053 6 4H26C26.5303 4.00053 27.0387 4.21141 27.4136 4.58637C27.7886 4.96133 27.9995 5.46973 28 6V26C27.9995 26.5303 27.7886 27.0387 27.4136 27.4136C27.0387 27.7886 26.5303 27.9995 26 28ZM6 6V26H26V6H6Z" fill="currentColor"/>
</svg>
