<svg width="32" height="32" viewBox="0 0 32 32" fill="none" xmlns="http://www.w3.org/2000/svg">
<path d="M17 22V14H13V16H15V22H12V24H20V22H17ZM16 8C15.7033 8 15.4133 8.08797 15.1666 8.2528C14.92 8.41762 14.7277 8.65189 14.6142 8.92597C14.5006 9.20006 14.4709 9.50166 14.5288 9.79264C14.5867 10.0836 14.7296 10.3509 14.9393 10.5607C15.1491 10.7704 15.4164 10.9133 15.7074 10.9712C15.9983 11.0291 16.2999 10.9994 16.574 10.8858C16.8481 10.7723 17.0824 10.58 17.2472 10.3334C17.412 10.0867 17.5 9.79667 17.5 9.5C17.5 9.10218 17.342 8.72064 17.0607 8.43934C16.7794 8.15804 16.3978 8 16 8Z" fill="currentColor"/>
<path d="M16 30C13.2311 30 10.5243 29.1789 8.22202 27.6406C5.91973 26.1022 4.12532 23.9157 3.06569 21.3576C2.00607 18.7994 1.72882 15.9845 2.26901 13.2687C2.80921 10.553 4.14258 8.05845 6.10051 6.10051C8.05845 4.14258 10.553 2.80921 13.2687 2.26901C15.9845 1.72882 18.7994 2.00607 21.3576 3.06569C23.9157 4.12532 26.1022 5.91973 27.6406 8.22202C29.1789 10.5243 30 13.2311 30 16C30 19.713 28.525 23.274 25.8995 25.8995C23.274 28.525 19.713 30 16 30ZM16 4.00001C13.6266 4.00001 11.3066 4.70379 9.33316 6.02237C7.35977 7.34095 5.8217 9.21509 4.91345 11.4078C4.0052 13.6005 3.76756 16.0133 4.23058 18.3411C4.69361 20.6689 5.83649 22.8071 7.51472 24.4853C9.19296 26.1635 11.3312 27.3064 13.6589 27.7694C15.9867 28.2325 18.3995 27.9948 20.5922 27.0866C22.7849 26.1783 24.6591 24.6402 25.9776 22.6668C27.2962 20.6935 28 18.3734 28 16C28 12.8174 26.7357 9.76516 24.4853 7.51472C22.2348 5.26429 19.1826 4.00001 16 4.00001Z" fill="currentColor"/>
</svg>
