<svg width="32" height="32" viewBox="0 0 32 32" fill="none" xmlns="http://www.w3.org/2000/svg">
<path fill-rule="evenodd" clip-rule="evenodd" d="M20 4V2H30V12H28V5.414L19.414 14L18 12.586L26.586 4H20ZM4.58666 27.4133C4.96156 27.7882 5.46981 27.9992 6 28H26C26.5302 27.9992 27.0384 27.7882 27.4133 27.4133C27.7882 27.0384 27.9992 26.5302 28 26V16H26V26H6V6H16V4H6C5.46981 4.00079 4.96156 4.21176 4.58666 4.58666C4.21176 4.96156 4.00079 5.46981 4 6V26C4.00079 26.5302 4.21176 27.0384 4.58666 27.4133Z" fill="currentColor"/>
</svg>
