<svg width="32" height="32" viewBox="0 0 32 32" fill="none" xmlns="http://www.w3.org/2000/svg">
<path d="M26 16.586V13C25.9991 11.4349 25.628 9.89225 24.917 8.498L30 3.414L28.586 2L2 28.586L3.414 30L9.414 24H11V25C11 26.3261 11.5268 27.5979 12.4645 28.5355C13.4021 29.4732 14.6739 30 16 30C17.3261 30 18.5979 29.4732 19.5355 28.5355C20.4732 27.5979 21 26.3261 21 25V24H28C28.2652 24 28.5196 23.8946 28.7071 23.7071C28.8946 23.5196 29 23.2652 29 23V20C28.9999 19.7348 28.8946 19.4805 28.707 19.293L26 16.586ZM19 25C19 25.7956 18.6839 26.5587 18.1213 27.1213C17.5587 27.6839 16.7956 28 16 28C15.2044 28 14.4413 27.6839 13.8787 27.1213C13.3161 26.5587 13 25.7956 13 25V24H19V25ZM27 22H11.414L23.412 10.002C23.8 10.9539 23.9997 11.972 24 13V17C24.0001 17.2652 24.1054 17.5195 24.293 17.707L27 20.414V22ZM7.707 17.707C7.89455 17.5195 7.99994 17.2652 8 17V13C8.00265 10.8791 8.84635 8.84579 10.3461 7.34607C11.8458 5.84635 13.8791 5.00265 16 5C17.8154 5.00084 19.5756 5.62497 20.986 6.768L22.412 5.342C20.8805 4.04962 18.9939 3.25064 17 3.05V1H15V3.05C12.5346 3.30093 10.2498 4.45712 8.58737 6.29498C6.92498 8.13285 6.0031 10.5218 6 13V16.586L3 19.586L4.414 21L7.707 17.707Z" fill="currentColor"/>
</svg>
