<svg width="32" height="32" viewBox="0 0 32 32" fill="none" xmlns="http://www.w3.org/2000/svg">
<path d="M26 16.586V14H24V17C24.0001 17.2652 24.1054 17.5195 24.293 17.707L27 20.414V22H5V20.414L7.707 17.707C7.89455 17.5195 7.99994 17.2652 8 17V13C7.99721 11.5948 8.3653 10.2137 9.06709 8.99632C9.76887 7.7789 10.7795 6.76823 11.9969 6.06641C13.2143 5.36458 14.5953 4.99644 16.0005 4.99918C17.4058 5.00192 18.7853 5.37543 20 6.082V3.847C19.0481 3.42552 18.0356 3.15688 17 3.051V1H15V3.05C12.5346 3.30093 10.2498 4.45712 8.58737 6.29498C6.92498 8.13285 6.0031 10.5218 6 13V16.586L3.293 19.293C3.10545 19.4805 3.00006 19.7348 3 20V23C3 23.2652 3.10536 23.5196 3.29289 23.7071C3.48043 23.8946 3.73478 24 4 24H11V25C11 26.3261 11.5268 27.5979 12.4645 28.5355C13.4021 29.4732 14.6739 30 16 30C17.3261 30 18.5979 29.4732 19.5355 28.5355C20.4732 27.5979 21 26.3261 21 25V24H28C28.2652 24 28.5196 23.8946 28.7071 23.7071C28.8946 23.5196 29 23.2652 29 23V20C28.9999 19.7348 28.8946 19.4805 28.707 19.293L26 16.586ZM19 25C19 25.7956 18.6839 26.5587 18.1213 27.1213C17.5587 27.6839 16.7956 28 16 28C15.2044 28 14.4413 27.6839 13.8787 27.1213C13.3161 26.5587 13 25.7956 13 25V24H19V25Z" fill="currentColor"/>
<path d="M26 12C28.2091 12 30 10.2091 30 8C30 5.79086 28.2091 4 26 4C23.7909 4 22 5.79086 22 8C22 10.2091 23.7909 12 26 12Z" fill="currentColor"/>
</svg>
