<svg width="32" height="32" viewBox="0 0 32 32" fill="none" xmlns="http://www.w3.org/2000/svg">
<path d="M16 20C18.2091 20 20 18.2091 20 16C20 13.7909 18.2091 12 16 12C13.7909 12 12 13.7909 12 16C12 18.2091 13.7909 20 16 20Z" fill="currentColor"/>
<path d="M30.9399 15.66C29.7638 12.6176 27.7219 9.98662 25.0667 8.09209C22.4116 6.19756 19.2594 5.12257 15.9999 5C12.7405 5.12257 9.58833 6.19756 6.93314 8.09209C4.27796 9.98662 2.2361 12.6176 1.05994 15.66C0.980508 15.8797 0.980508 16.1203 1.05994 16.34C2.2361 19.3824 4.27796 22.0134 6.93314 23.9079C9.58833 25.8024 12.7405 26.8774 15.9999 27C19.2594 26.8774 22.4116 25.8024 25.0667 23.9079C27.7219 22.0134 29.7638 19.3824 30.9399 16.34C31.0194 16.1203 31.0194 15.8797 30.9399 15.66ZM15.9999 22.5C14.7144 22.5 13.4577 22.1188 12.3887 21.4046C11.3198 20.6903 10.4867 19.6752 9.99472 18.4874C9.50275 17.2997 9.37403 15.9928 9.62484 14.7319C9.87564 13.471 10.4947 12.3128 11.4037 11.4038C12.3128 10.4948 13.471 9.8757 14.7319 9.6249C15.9927 9.37409 17.2997 9.50281 18.4874 9.99478C19.6751 10.4868 20.6903 11.3199 21.4045 12.3888C22.1187 13.4577 22.4999 14.7144 22.4999 16C22.4973 17.7231 21.8116 19.3749 20.5932 20.5933C19.3748 21.8117 17.723 22.4974 15.9999 22.5Z" fill="currentColor"/>
</svg>
