<svg width="32" height="32" viewBox="0 0 32 32" fill="none" xmlns="http://www.w3.org/2000/svg">
<path d="M16 20C15.7033 20 15.4133 20.088 15.1666 20.2528C14.92 20.4176 14.7277 20.6519 14.6142 20.926C14.5006 21.2001 14.4709 21.5017 14.5288 21.7926C14.5867 22.0836 14.7296 22.3509 14.9393 22.5607C15.1491 22.7704 15.4164 22.9133 15.7074 22.9712C15.9983 23.0291 16.2999 22.9993 16.574 22.8858C16.8481 22.7723 17.0824 22.58 17.2472 22.3334C17.412 22.0867 17.5 21.7967 17.5 21.5C17.5 21.1022 17.342 20.7206 17.0607 20.4393C16.7794 20.158 16.3978 20 16 20ZM15 9H17V18H15V9Z" fill="currentColor"/>
<path d="M26 28H6C5.46973 27.9995 4.96133 27.7886 4.58637 27.4136C4.21141 27.0387 4.00053 26.5303 4 26V6C4.00053 5.46973 4.21141 4.96133 4.58637 4.58637C4.96133 4.21141 5.46973 4.00053 6 4H26C26.5303 4.00053 27.0387 4.21141 27.4136 4.58637C27.7886 4.96133 27.9995 5.46973 28 6V26C27.9995 26.5303 27.7886 27.0387 27.4136 27.4136C27.0387 27.7886 26.5303 27.9995 26 28ZM6 6V26H26.001L26 6H6Z" fill="currentColor"/>
</svg>
