<svg width="32" height="32" viewBox="0 0 32 32" fill="none" xmlns="http://www.w3.org/2000/svg">
<path d="M30.85 15.449L23.888 3.532C23.794 3.37022 23.6592 3.23594 23.4971 3.14258C23.3349 3.04922 23.1511 3.00006 22.964 3H9.03602C8.84909 3.00023 8.66549 3.04948 8.50353 3.14283C8.34157 3.23618 8.20693 3.37036 8.11302 3.532L1.15002 15.45C1.05241 15.6172 1.00098 15.8074 1.00098 16.001C1.00098 16.1946 1.05241 16.3848 1.15002 16.552L8.11402 28.469C8.20793 28.6306 8.34257 28.7648 8.50453 28.8582C8.66649 28.9515 8.85009 29.0008 9.03702 29.001H22.965C23.152 29.0008 23.3356 28.9515 23.4975 28.8582C23.6595 28.7648 23.7941 28.6306 23.888 28.469L30.85 16.55C30.9476 16.3828 30.9991 16.1926 30.9991 15.999C30.9991 15.8054 30.9476 15.6152 30.85 15.448V15.449ZM14.876 8H17.126V19H14.876V8ZM16 25C15.7034 25 15.4133 24.912 15.1667 24.7472C14.92 24.5824 14.7277 24.3481 14.6142 24.074C14.5007 23.7999 14.471 23.4983 14.5288 23.2074C14.5867 22.9164 14.7296 22.6491 14.9394 22.4393C15.1491 22.2296 15.4164 22.0867 15.7074 22.0288C15.9984 21.9709 16.3 22.0007 16.574 22.1142C16.8481 22.2277 17.0824 22.42 17.2472 22.6666C17.412 22.9133 17.5 23.2033 17.5 23.5C17.5 23.8978 17.342 24.2794 17.0607 24.5607C16.7794 24.842 16.3978 25 16 25Z" fill="currentColor"/>
</svg>
