<svg width="32" height="32" viewBox="0 0 32 32" fill="none" xmlns="http://www.w3.org/2000/svg">
<path d="M16 23C15.7033 23 15.4133 23.088 15.1666 23.2528C14.92 23.4176 14.7277 23.6519 14.6142 23.926C14.5006 24.2001 14.4709 24.5017 14.5288 24.7926C14.5867 25.0836 14.7296 25.3509 14.9393 25.5607C15.1491 25.7704 15.4164 25.9133 15.7074 25.9712C15.9983 26.0291 16.2999 25.9993 16.574 25.8858C16.8481 25.7723 17.0824 25.58 17.2472 25.3334C17.412 25.0867 17.5 24.7967 17.5 24.5C17.5 24.1022 17.342 23.7206 17.0607 23.4393C16.7794 23.158 16.3978 23 16 23ZM15 12H17V21H15V12Z" fill="currentColor"/>
<path d="M29 30H2.99997C2.82823 29.9999 2.65941 29.9556 2.50976 29.8714C2.36012 29.7871 2.23469 29.6658 2.14557 29.519C2.05645 29.3722 2.00663 29.2049 2.00092 29.0332C1.99521 28.8616 2.0338 28.6914 2.11297 28.539L15.113 3.53899C15.1974 3.37673 15.3248 3.24075 15.4812 3.14584C15.6376 3.05094 15.817 3.00076 16 3.00076C16.1829 3.00076 16.3623 3.05094 16.5187 3.14584C16.6751 3.24075 16.8025 3.37673 16.887 3.53899L29.887 28.539C29.9661 28.6914 30.0047 28.8616 29.999 29.0332C29.9933 29.2049 29.9435 29.3722 29.8544 29.519C29.7652 29.6658 29.6398 29.7871 29.4902 29.8714C29.3405 29.9556 29.1717 29.9999 29 30ZM4.64997 28H27.35L27.351 27.997L16.002 6.16999H15.998L4.64797 27.997L4.64997 28Z" fill="currentColor"/>
</svg>
