<svg width="32" height="32" viewBox="0 0 32 32" fill="none" xmlns="http://www.w3.org/2000/svg">
<path d="M30 11.414L28.586 10L24 14.586L19.414 10L18 11.414L22.586 16L18 20.585L19.415 22L24 17.414L28.587 22L30 20.587L25.414 16L30 11.414Z" fill="currentColor"/>
<path d="M4 4C3.46957 4 2.96086 4.21071 2.58579 4.58579C2.21071 4.96086 2 5.46957 2 6V9.17C1.99992 9.43279 2.05164 9.69302 2.15219 9.93581C2.25274 10.1786 2.40015 10.3992 2.586 10.585L10 18V26C10 26.5304 10.2107 27.0391 10.5858 27.4142C10.9609 27.7893 11.4696 28 12 28H16C16.5304 28 17.0391 27.7893 17.4142 27.4142C17.7893 27.0391 18 26.5304 18 26V24H16V26H12V17.17L11.414 16.585L4 9.171V6H24V8H26V6C26 5.46957 25.7893 4.96086 25.4142 4.58579C25.0391 4.21071 24.5304 4 24 4H4Z" fill="currentColor"/>
</svg>
