<svg width="32" height="32" viewBox="0 0 32 32" fill="none" xmlns="http://www.w3.org/2000/svg">
<path d="M22 24H10C9.46973 23.9995 8.96133 23.7886 8.58637 23.4136C8.21141 23.0387 8.00053 22.5303 8 22V10C8.00053 9.46973 8.21141 8.96133 8.58637 8.58637C8.96133 8.21141 9.46973 8.00053 10 8H22C22.5303 8.00053 23.0387 8.21141 23.4136 8.58637C23.7886 8.96133 23.9995 9.46973 24 10V22C23.9995 22.5303 23.7886 23.0387 23.4136 23.4136C23.0387 23.7886 22.5303 23.9995 22 24ZM10 10V22H22V10H10ZM8 30H4C3.46973 29.9995 2.96133 29.7886 2.58637 29.4136C2.21141 29.0387 2.00053 28.5303 2 28V4C2.00053 3.46973 2.21141 2.96133 2.58637 2.58637C2.96133 2.21141 3.46973 2.00053 4 2H8V4H4V28H8V30ZM28 30H24V28H28V4H24V2H28C28.5303 2.00053 29.0387 2.21141 29.4136 2.58637C29.7886 2.96133 29.9995 3.46973 30 4V28C29.9995 28.5303 29.7886 29.0387 29.4136 29.4136C29.0387 29.7886 28.5303 29.9995 28 30Z" fill="currentColor"/>
</svg>
