<svg width="32" height="32" viewBox="0 0 32 32" fill="none" xmlns="http://www.w3.org/2000/svg">
<path d="M26 16.586V13C25.9989 11.4354 25.6263 9.89349 24.913 8.501L30 3.414L28.586 2L2 28.586L3.414 30L9.414 24H11V25C11 26.3261 11.5268 27.5979 12.4645 28.5355C13.4021 29.4732 14.6739 30 16 30C17.3261 30 18.5979 29.4732 19.5355 28.5355C20.4732 27.5979 21 26.3261 21 25V24H28C28.2652 24 28.5196 23.8946 28.7071 23.7071C28.8946 23.5196 29 23.2652 29 23V20C28.9999 19.7348 28.8946 19.4805 28.707 19.293L26 16.586ZM19 25C19 25.7956 18.6839 26.5587 18.1213 27.1213C17.5587 27.6839 16.7956 28 16 28C15.2044 28 14.4413 27.6839 13.8787 27.1213C13.3161 26.5587 13 25.7956 13 25V24H19V25ZM21.61 4.738C20.2388 3.79856 18.6537 3.21849 17 3.051V1H15V3.05C12.5346 3.30093 10.2498 4.45712 8.58737 6.29498C6.92498 8.13285 6.0031 10.5218 6 13V16.586L3.293 19.293C3.10545 19.4805 3.00006 19.7348 3 20V23C3.00478 23.0991 3.02468 23.1969 3.059 23.29L21.61 4.738Z" fill="currentColor"/>
</svg>
