<svg width="32" height="32" viewBox="0 0 32 32" fill="none" xmlns="http://www.w3.org/2000/svg">
<path d="M16.002 6.17099H15.9979L4.64795 27.997L4.65095 28H27.3489L27.3509 27.997L16.002 6.17099ZM14.8749 12H17.1249V21H14.8749V12ZM15.9999 26C15.7033 26 15.4133 25.912 15.1666 25.7472C14.9199 25.5824 14.7277 25.3481 14.6141 25.074C14.5006 24.7999 14.4709 24.4983 14.5288 24.2074C14.5866 23.9164 14.7295 23.6491 14.9393 23.4393C15.1491 23.2296 15.4163 23.0867 15.7073 23.0288C15.9983 22.9709 16.2999 23.0006 16.574 23.1142C16.8481 23.2277 17.0823 23.42 17.2472 23.6666C17.412 23.9133 17.4999 24.2033 17.4999 24.5C17.4999 24.8978 17.3419 25.2793 17.0606 25.5606C16.7793 25.842 16.3978 26 15.9999 26Z" fill="currentColor"/>
<path d="M29 30H2.99997C2.82823 29.9999 2.65941 29.9556 2.50976 29.8714C2.36012 29.7871 2.23469 29.6658 2.14557 29.519C2.05645 29.3722 2.00663 29.2049 2.00092 29.0332C1.99521 28.8616 2.0338 28.6914 2.11297 28.539L15.113 3.53899C15.1974 3.37673 15.3248 3.24075 15.4812 3.14584C15.6376 3.05094 15.817 3.00076 16 3.00076C16.1829 3.00076 16.3623 3.05094 16.5187 3.14584C16.6751 3.24075 16.8025 3.37673 16.887 3.53899L29.887 28.539C29.9661 28.6914 30.0047 28.8616 29.999 29.0332C29.9933 29.2049 29.9435 29.3722 29.8544 29.519C29.7652 29.6658 29.6398 29.7871 29.4902 29.8714C29.3405 29.9556 29.1717 29.9999 29 30ZM4.64997 28H27.35L27.351 27.997L16.002 6.16999H15.998L4.64797 27.997L4.64997 28Z" fill="currentColor"/>
</svg>
