<svg width="32" height="32" viewBox="0 0 32 32" fill="none" xmlns="http://www.w3.org/2000/svg">
<path d="M26.002 4H5.998C5.4681 4 4.9599 4.2105 4.5852 4.5852C4.2105 4.9599 4 5.4681 4 5.998V26.002C4 26.5319 4.2105 27.0401 4.5852 27.4148C4.9599 27.7895 5.4681 28 5.998 28H26.002C26.2644 28 26.5242 27.9483 26.7666 27.8479C27.009 27.7475 27.2293 27.6003 27.4148 27.4148C27.6003 27.2293 27.7475 27.009 27.8479 26.7666C27.9483 26.5242 28 26.2644 28 26.002V5.998C28 5.73562 27.9483 5.47581 27.8479 5.2334C27.7475 4.99099 27.6003 4.77073 27.4148 4.5852C27.2293 4.39967 27.009 4.2525 26.7666 4.15209C26.5242 4.05168 26.2644 4 26.002 4ZM14.875 8H17.125V18H14.875V8ZM16 24C15.7033 24 15.4133 23.912 15.1666 23.7472C14.92 23.5824 14.7277 23.3481 14.6142 23.074C14.5006 22.7999 14.4709 22.4983 14.5288 22.2074C14.5867 21.9164 14.7296 21.6491 14.9393 21.4393C15.1491 21.2296 15.4164 21.0867 15.7074 21.0288C15.9983 20.9709 16.2999 21.0007 16.574 21.1142C16.8481 21.2277 17.0824 21.42 17.2472 21.6666C17.412 21.9133 17.5 22.2033 17.5 22.5C17.5 22.8978 17.342 23.2794 17.0607 23.5607C16.7794 23.842 16.3978 24 16 24Z" fill="currentColor"/>
</svg>
