<svg width="32" height="32" viewBox="0 0 32 32" fill="none" xmlns="http://www.w3.org/2000/svg">
<path d="M22.5 9C21.1775 8.99845 19.8785 9.34886 18.7362 10.0153C17.5939 10.6817 16.6495 11.64 16 12.792V8H14V16H22V14H17.617C18.0623 13.1312 18.7311 12.3967 19.5546 11.8722C20.378 11.3477 21.3263 11.0521 22.3019 11.0158C23.2776 10.9795 24.2452 11.2038 25.1054 11.6657C25.9655 12.1276 26.687 12.8103 27.1956 13.6437C27.7043 14.477 27.9817 15.4308 27.9993 16.407C28.0169 17.3831 27.774 18.3463 27.2958 19.1974C26.8175 20.0485 26.1211 20.7568 25.2782 21.2494C24.4352 21.742 23.4763 22.0011 22.5 22H22V24H22.5C24.4891 24 26.3968 23.2098 27.8033 21.8033C29.2098 20.3968 30 18.4891 30 16.5C30 14.5109 29.2098 12.6032 27.8033 11.1967C26.3968 9.79018 24.4891 9 22.5 9Z" fill="currentColor"/>
<path d="M26 6H4V9.171L11.414 16.585L12 17.171V26H16V24H18V26C18 26.5304 17.7893 27.0391 17.4142 27.4142C17.0391 27.7893 16.5304 28 16 28H12C11.4696 28 10.9609 27.7893 10.5858 27.4142C10.2107 27.0391 10 26.5304 10 26V18L2.586 10.585C2.2109 10.21 2.00011 9.70139 2 9.171V6C2 5.46957 2.21071 4.96086 2.58579 4.58579C2.96086 4.21071 3.46957 4 4 4H26V6Z" fill="currentColor"/>
</svg>
