<svg width="32" height="32" viewBox="0 0 32 32" fill="none" xmlns="http://www.w3.org/2000/svg">
<path d="M22 16H24V8H16V10H22V16ZM8 24H16V22H10V16H8V24Z" fill="currentColor"/>
<path d="M26 28H6C5.46973 27.9995 4.96133 27.7886 4.58637 27.4136C4.21141 27.0387 4.00053 26.5303 4 26V6C4.00053 5.46973 4.21141 4.96133 4.58637 4.58637C4.96133 4.21141 5.46973 4.00053 6 4H26C26.5303 4.00053 27.0387 4.21141 27.4136 4.58637C27.7886 4.96133 27.9995 5.46973 28 6V26C27.9995 26.5303 27.7886 27.0387 27.4136 27.4136C27.0387 27.7886 26.5303 27.9995 26 28ZM6 6V26H26.001L26 6H6Z" fill="currentColor"/>
</svg>
