<svg width="32" height="32" viewBox="0 0 32 32" fill="none" xmlns="http://www.w3.org/2000/svg">
<path d="M26 4H6C5.46957 4 4.96086 4.21071 4.58579 4.58579C4.21071 4.96086 4 5.46957 4 6V26C4 26.5304 4.21071 27.0391 4.58579 27.4142C4.96086 27.7893 5.46957 28 6 28H26C26.5304 28 27.0391 27.7893 27.4142 27.4142C27.7893 27.0391 28 26.5304 28 26V6C28 5.46957 27.7893 4.96086 27.4142 4.58579C27.0391 4.21071 26.5304 4 26 4ZM16 8C16.2967 8 16.5867 8.08797 16.8334 8.2528C17.08 8.41762 17.2723 8.65189 17.3858 8.92597C17.4993 9.20006 17.5291 9.50166 17.4712 9.79264C17.4133 10.0836 17.2704 10.3509 17.0607 10.5607C16.8509 10.7704 16.5836 10.9133 16.2926 10.9712C16.0017 11.0291 15.7001 10.9994 15.426 10.8858C15.1519 10.7723 14.9176 10.58 14.7528 10.3334C14.588 10.0867 14.5 9.79667 14.5 9.5C14.5 9.10218 14.658 8.72064 14.9393 8.43934C15.2206 8.15804 15.6022 8 16 8ZM20 24.125H12V21.875H14.875V16.125H13V13.875H17.125V21.875H20V24.125Z" fill="currentColor"/>
</svg>
