<svg width="32" height="32" viewBox="0 0 32 32" fill="none" xmlns="http://www.w3.org/2000/svg">
<path d="M16 2C13.2311 2 10.5243 2.82109 8.22202 4.35943C5.91973 5.89777 4.12532 8.08427 3.06569 10.6424C2.00607 13.2006 1.72882 16.0155 2.26901 18.7313C2.80921 21.447 4.14258 23.9416 6.10051 25.8995C8.05845 27.8574 10.553 29.1908 13.2687 29.731C15.9845 30.2712 18.7994 29.9939 21.3576 28.9343C23.9157 27.8747 26.1022 26.0803 27.6406 23.778C29.1789 21.4757 30 18.7689 30 16C30 12.287 28.525 8.72601 25.8995 6.1005C23.274 3.475 19.713 2 16 2ZM16 8C16.2967 8 16.5867 8.08797 16.8334 8.2528C17.08 8.41762 17.2723 8.65189 17.3858 8.92597C17.4994 9.20006 17.5291 9.50166 17.4712 9.79264C17.4133 10.0836 17.2704 10.3509 17.0607 10.5607C16.8509 10.7704 16.5836 10.9133 16.2926 10.9712C16.0017 11.0291 15.7001 10.9994 15.426 10.8858C15.1519 10.7723 14.9176 10.58 14.7528 10.3334C14.588 10.0867 14.5 9.79667 14.5 9.5C14.5 9.10218 14.658 8.72064 14.9393 8.43934C15.2207 8.15804 15.6022 8 16 8ZM20 24.125H12V21.875H14.875V16.125H13V13.875H17.125V21.875H20V24.125Z" fill="currentColor"/>
</svg>
