<svg width="32" height="32" viewBox="0 0 32 32" fill="none" xmlns="http://www.w3.org/2000/svg">
<path d="M28.707 19.293L26 16.586V13C25.9969 10.5218 25.075 8.13285 23.4126 6.29498C21.7502 4.45712 19.4654 3.30093 17 3.05V1H15V3.05C12.5346 3.30093 10.2498 4.45712 8.58737 6.29498C6.92498 8.13285 6.0031 10.5218 6 13V16.586L3.293 19.293C3.10545 19.4805 3.00006 19.7348 3 20V23C3 23.2652 3.10536 23.5196 3.29289 23.7071C3.48043 23.8946 3.73478 24 4 24H11V24.777C10.9782 26.0456 11.4254 27.2777 12.2558 28.237C13.0862 29.1964 14.2414 29.8156 15.5 29.976C16.1952 30.0449 16.8971 29.9676 17.5606 29.749C18.2241 29.5304 18.8345 29.1753 19.3525 28.7066C19.8706 28.2379 20.2848 27.666 20.5685 27.0277C20.8522 26.3893 20.9992 25.6986 21 25V24H28C28.2652 24 28.5196 23.8946 28.7071 23.7071C28.8946 23.5196 29 23.2652 29 23V20C28.9999 19.7348 28.8946 19.4805 28.707 19.293ZM19 25C19 25.7956 18.6839 26.5587 18.1213 27.1213C17.5587 27.6839 16.7956 28 16 28C15.2044 28 14.4413 27.6839 13.8787 27.1213C13.3161 26.5587 13 25.7956 13 25V24H19V25ZM27 22H5V20.414L7.707 17.707C7.89455 17.5195 7.99994 17.2652 8 17V13C8 10.8783 8.84285 8.84344 10.3431 7.34315C11.8434 5.84285 13.8783 5 16 5C18.1217 5 20.1566 5.84285 21.6569 7.34315C23.1571 8.84344 24 10.8783 24 13V17C24.0001 17.2652 24.1054 17.5195 24.293 17.707L27 20.414V22Z" fill="currentColor"/>
</svg>
