<svg width="32" height="32" viewBox="0 0 32 32" fill="none" xmlns="http://www.w3.org/2000/svg">
<path d="M22.914 16.5L25.707 13.707C25.8945 13.5195 25.9998 13.2652 25.9998 13C25.9998 12.7348 25.8945 12.4805 25.707 12.293L23.414 10L25.5 7.914L28.586 11L30 9.586L22.414 2L21 3.414L24.086 6.5L22 8.586L19.707 6.293C19.5195 6.10553 19.2652 6.00021 19 6.00021C18.7348 6.00021 18.4805 6.10553 18.293 6.293L15.5 9.086L8.707 2.293C8.51947 2.10553 8.26516 2.00021 8 2.00021C7.73484 2.00021 7.48053 2.10553 7.293 2.293L2.293 7.293C2.10553 7.48053 2.00021 7.73484 2.00021 8C2.00021 8.26516 2.10553 8.51947 2.293 8.707L9.086 15.5L6.293 18.293C6.10553 18.4805 6.00021 18.7348 6.00021 19C6.00021 19.2652 6.10553 19.5195 6.293 19.707L8.586 22L6.5 24.086L3.414 21L2 22.414L9.586 30L11 28.586L7.914 25.5L10 23.414L12.293 25.707C12.4805 25.8945 12.7348 25.9998 13 25.9998C13.2652 25.9998 13.5195 25.8945 13.707 25.707L16.5 22.914L23.293 29.707C23.4805 29.8945 23.7348 29.9998 24 29.9998C24.2652 29.9998 24.5195 29.8945 24.707 29.707L29.707 24.707C29.8945 24.5195 29.9998 24.2652 29.9998 24C29.9998 23.7348 29.8945 23.4805 29.707 23.293L22.914 16.5ZM4.414 8L8 4.414L10.086 6.5L6.5 10.086L4.414 8ZM7.914 11.5L11.5 7.914L14.086 10.5L10.5 14.086L7.914 11.5ZM13 23.586L8.414 19L19 8.414L23.586 13L13 23.586ZM17.914 21.5L21.5 17.914L24.086 20.5L20.5 24.086L17.914 21.5ZM24 27.586L21.914 25.5L25.5 21.914L27.586 24L24 27.586Z" fill="currentColor"/>
</svg>
