<svg width="32" height="32" viewBox="0 0 32 32" fill="none" xmlns="http://www.w3.org/2000/svg">
<path d="M10.57 30L11.503 28H20.496L21.429 30H23.637L17 15.778V11H15V15.778L8.36304 30H10.57ZM16 18.365L17.697 22H14.304L16 18.365ZM13.37 24H18.63L19.563 26H12.437L13.37 24ZM10.783 9.33199C11.4396 8.59807 12.2437 8.01094 13.1426 7.60896C14.0416 7.20698 15.0153 6.99921 16 6.99921C16.9848 6.99921 17.9585 7.20698 18.8574 7.60896C19.7564 8.01094 20.5605 8.59807 21.217 9.33199L19.727 10.666C19.258 10.1417 18.6837 9.72234 18.0416 9.4352C17.3994 9.14806 16.704 8.99964 16.0005 8.99964C15.2971 8.99964 14.6016 9.14806 13.9595 9.4352C13.3173 9.72234 12.743 10.1417 12.274 10.666L10.783 9.33199Z" fill="currentColor"/>
<path d="M7.19995 6.40001C8.22482 5.03421 9.55352 3.92572 11.0809 3.16226C12.6083 2.3988 14.2924 2.00134 16 2.00134C17.7075 2.00134 19.3916 2.3988 20.919 3.16226C22.4464 3.92572 23.7751 5.03421 24.7999 6.40001L23.2 7.60001C22.3616 6.48205 21.2745 5.57466 20.0247 4.94969C18.775 4.32471 17.3968 3.99934 15.9995 3.99934C14.6021 3.99934 13.224 4.32471 11.9742 4.94969C10.7244 5.57466 9.63726 6.48205 8.79895 7.60001L7.19995 6.40001Z" fill="currentColor"/>
</svg>
