<svg width="32" height="32" viewBox="0 0 32 32" fill="none" xmlns="http://www.w3.org/2000/svg">
<path d="M30.9401 15.66C29.7978 12.6708 27.806 10.0811 25.2101 8.21L30.0001 3.41L28.5901 2L2.00006 28.59L3.41006 30L8.51006 24.91C10.7865 26.2367 13.3656 26.9564 16.0001 27C19.2595 26.8774 22.4117 25.8024 25.0669 23.9079C27.722 22.0134 29.7639 19.3824 30.9401 16.34C31.0195 16.1203 31.0195 15.8797 30.9401 15.66ZM16.0001 22.5C14.6217 22.4994 13.2796 22.0579 12.1701 21.24L14.0001 19.43C14.7589 19.8458 15.632 20.0043 16.4885 19.8817C17.345 19.7592 18.1387 19.3623 18.7505 18.7505C19.3623 18.1387 19.7593 17.345 19.8818 16.4885C20.0043 15.6319 19.8458 14.7588 19.4301 14L21.2401 12.19C21.9445 13.1576 22.3677 14.3012 22.4629 15.4943C22.558 16.6874 22.3213 17.8835 21.779 18.9505C21.2367 20.0175 20.4099 20.9137 19.3901 21.5402C18.3702 22.1666 17.1969 22.4988 16.0001 22.5ZM4.53006 21.81L9.53006 16.81C9.50406 16.5408 9.49404 16.2704 9.50006 16C9.50271 14.2769 10.1884 12.6251 11.4068 11.4067C12.6252 10.1883 14.277 9.50265 16.0001 9.5C16.2641 9.5014 16.5279 9.5181 16.7901 9.55L20.5701 5.78C19.0989 5.27471 17.5555 5.01129 16.0001 5C12.7406 5.12257 9.58845 6.19756 6.93326 8.09209C4.27808 9.98662 2.23622 12.6176 1.06006 15.66C0.98063 15.8797 0.98063 16.1203 1.06006 16.34C1.82809 18.3826 3.00939 20.2448 4.53006 21.81Z" fill="currentColor"/>
</svg>
