<svg width="32" height="32" viewBox="0 0 32 32" fill="none" xmlns="http://www.w3.org/2000/svg">
<path d="M16 21C15.7033 21 15.4133 21.088 15.1666 21.2528C14.92 21.4176 14.7277 21.6519 14.6142 21.926C14.5006 22.2001 14.4709 22.5017 14.5288 22.7926C14.5867 23.0836 14.7296 23.3509 14.9393 23.5607C15.1491 23.7704 15.4164 23.9133 15.7074 23.9712C15.9983 24.0291 16.2999 23.9993 16.574 23.8858C16.8481 23.7723 17.0824 23.58 17.2472 23.3334C17.412 23.0867 17.5 22.7967 17.5 22.5C17.5 22.1022 17.342 21.7206 17.0607 21.4393C16.7794 21.158 16.3978 21 16 21ZM15 8H17V18H15V8Z" fill="currentColor"/>
<path d="M23.0001 29H9.00005C8.82525 29.0001 8.65349 28.9543 8.50189 28.8673C8.35029 28.7802 8.22415 28.655 8.13605 28.504L1.13605 16.504C1.04679 16.351 0.999756 16.1771 0.999756 16C0.999756 15.8229 1.04679 15.649 1.13605 15.496L8.13605 3.496C8.22415 3.34502 8.35029 3.21978 8.50189 3.13275C8.65349 3.04572 8.82525 2.99995 9.00005 3H23.0001C23.1749 2.99995 23.3466 3.04572 23.4982 3.13275C23.6498 3.21978 23.776 3.34502 23.8641 3.496L30.8641 15.496C30.9533 15.649 31.0003 15.8229 31.0003 16C31.0003 16.1771 30.9533 16.351 30.8641 16.504L23.8641 28.504C23.776 28.655 23.6498 28.7802 23.4982 28.8673C23.3466 28.9543 23.1749 29.0001 23.0001 29ZM9.57405 27H22.4261L28.8421 16L22.4261 5H9.57405L3.15805 16L9.57405 27Z" fill="currentColor"/>
</svg>
