<svg height="40px" width="40px" version="1.1" id="_x32_" xmlns="http://www.w3.org/2000/svg" xmlns:xlink="http://www.w3.org/1999/xlink" 
	 viewBox="0 0 512 512"  xml:space="preserve">
<style type="text/css">
	.st0{fill:##003480;}
</style>
<g>
	<path class="st0" d="M509.065,323.813c1.92-4.068,2.935-8.466,2.935-12.717c0-4.382-1.027-8.718-3.042-12.848
		c-2.362-4.908-5.779-9.313-10.767-13.878c-1.558-1.42-3.248-2.832-5.107-4.267l11.301-54.229c0.428-1.931,0.657-4.008,0.657-5.999
		c0-6.703-2.336-13.199-6.508-18.206c-5.512-6.809-13.679-10.718-22.412-10.718h-31.893c-11.186,0-21.458,6.565-26.16,16.71
		l-13.123,28.229c-3.779-1.932-7.362-3.847-10.729-5.641c-4.508-2.412-8.641-4.618-12.397-6.42
		c-6.587-3.106-12.824-6.206-18.908-9.222c-9.199-4.572-17.89-8.885-27.084-12.908c-15.566-6.848-30.027-11.65-45.203-15.016
		l-13.492-22.97c-9.882-16.947-28.226-27.481-47.867-27.481H204.06c-0.095-5.901-0.202-11.366-0.29-16.061
		c-0.126-6.512-0.221-11.496-0.221-13.955c0-16.458-12.954-33.152-37.764-34.61c-1.977-1.512-4.542-2.649-7.53-2.649
		c-2.012,0-5.084,0.535-8.394,3.184c-3.294,2.725-4.961,7.542-5.584,16.099c-0.065,0.916-1.546,22.404,4.702,29.328
		c3.229,3.558,6.596,4.306,8.856,4.306c2.725,0,5.007-1.054,6.759-2.489c0.244,1.496,0.496,4.214,0.496,9.03v8.374
		c-25.088,3.564-44.847,23.71-47.332,49.565l-0.484,4.938c-32.966,8.741-59.721,21.962-79.573,39.336
		c-12.007,10.458-21.306,22.428-27.61,35.534C3.396,279.905,0,295.019,0,311.096c0,22.092,6.324,42.183,18.774,59.68
		c16.79,23.885,44.05,42.374,81.026,54.961c33.252,11.32,74.077,17.306,118.054,17.306c67.065,0,117.149-22.053,166.725-46.603
		c3.45-1.688,7.29-3.779,11.492-6.069c3.126-1.703,6.465-3.519,10.004-5.366l11.988,25.687
		c4.706,10.152,14.977,16.718,26.164,16.718h31.893c8.733,0,16.901-3.908,22.344-10.634c4.241-5.091,6.576-11.588,6.576-18.29
		c0-1.992-0.229-4.068-0.633-5.893l-10.695-51.328c3.351-2.566,6.195-5.153,8.595-7.794
		C505.092,330.5,507.275,327.393,509.065,323.813z M477.412,314.233c-2.161,1.977-5.309,4.267-9.302,6.778l-9.359,5.771
		l14.455,69.359h-27.424l-24.409-52.496l-14.026,6.091c-10.726,4.65-20.046,9.748-27.535,13.841c-3.477,1.9-6.526,3.572-9.096,4.847
		c-47.836,23.718-92.358,43.351-152.862,43.351c-54.233,0-102.401-9.726-135.63-27.382c-16.584-8.809-29.343-19.443-37.928-31.61
		c-8.767-12.42-13.03-26.053-13.03-41.687c0-11.336,2.279-21.581,6.962-31.314c6.752-13.984,18.511-26.313,34.95-36.641
		c16.534-10.381,37.416-18.488,62.076-24.091l10.954-2.504l2.665-27.122c1.186-12.443,11.5-21.863,23.992-21.924l-0.038-7.817
		l0.156,7.817h56.283c8.562,0,16.58,4.603,20.928,12l20.53,35.076l7.062,1.412c15.469,2.885,29.477,7.298,45.431,14.328
		c8.725,3.817,17.469,8.16,26.725,12.748c5.886,2.923,11.988,5.946,18.489,9.046c2.992,1.412,6.607,3.359,10.74,5.58
		c7.42,3.992,16.656,8.954,27.004,13.435l14.018,6.092l25.584-55h27.416l-14.965,72.237l9.121,5.824
		c6.699,4.206,10.069,7.268,11.725,9.107l1.352,1.58C480,311.576,479.069,312.721,477.412,314.233z"/>
	<path class="st0" d="M102.649,269.813c-17.172,0-31.084,13.916-31.084,31.084s13.912,31.091,31.084,31.091
		c17.168,0,31.08-13.923,31.08-31.091S119.817,269.813,102.649,269.813z"/>
	<path class="st0" d="M193.786,269.813c-17.172,0-31.08,13.916-31.08,31.084s13.908,31.091,31.08,31.091
		c17.172,0,31.084-13.923,31.084-31.091S210.958,269.813,193.786,269.813z"/>
	<path class="st0" d="M284.927,269.813c-17.167,0-31.08,13.916-31.08,31.084s13.912,31.091,31.08,31.091
		c17.172,0,31.084-13.923,31.084-31.091S302.099,269.813,284.927,269.813z"/>
</g>
</svg>