<?xml version="1.0" encoding="iso-8859-1"?>
<!-- Generator: Adobe Illustrator 19.0.0, SVG Export Plug-In . SVG Version: 6.00 Build 0)  -->
<!-- License: CC0. Made by SVG Repo: https://www.svgrepo.com/svg/6242/submarine -->
<svg version="1.1" id="Layer_1" xmlns="http://www.w3.org/2000/svg" xmlns:xlink="http://www.w3.org/1999/xlink" x="0px" y="0px"
	 viewBox="0 0 680 680" style="enable-background:new 0 0 680 680;" xml:space="preserve">
<path style="fill:#61ACD2;" d="M512,39.404c-25.602,0-25.602,22.117-51.206,22.117s-25.603-22.117-51.206-22.117
	c-25.599,0-25.599,22.117-51.199,22.117s-25.6-22.117-51.2-22.117c-25.599,0-25.599,22.117-51.198,22.117
	s-25.599-22.117-51.197-22.117c-25.6,0-25.6,22.117-51.2,22.117c-25.599,0-25.599-22.117-51.198-22.117
	c-25.6,0-25.6,22.117-51.199,22.117S25.6,39.404,0,39.404v433.192h512V39.404z"/>
<rect x="42.387" y="316.069" style="fill:#495577;" width="73.726" height="17.693"/>
<path style="fill:#E46A53;" d="M447.884,324.912c0,41.082-40.407,76.457-98.441,92.304c-20.889,5.706-44.067,8.88-68.473,8.88
	c-26.219,0-51.023-3.671-73.107-10.207c-27.602-8.161-50.935-20.801-67.423-36.36V270.306c16.488-15.559,39.821-28.21,67.423-36.36
	v-0.011c22.072-6.535,46.887-10.196,73.107-10.196c24.406,0,47.584,3.174,68.473,8.88
	C407.477,248.455,447.884,283.83,447.884,324.912z"/>
<polygon style="fill:#EFEFEF;" points="143.758,245.608 143.758,414.17 107.266,425.229 107.266,224.598 "/>
<rect x="232.191" y="144.178" style="fill:#E46A53;" width="92.923" height="42.575"/>
<path style="fill:#495577;" d="M349.443,183.432v52.505c-20.889-5.706-44.067-8.88-68.473-8.88c-26.219,0-51.034,3.66-73.107,10.196
	v-53.821H349.443z"/>
<path style="fill:#EFEFEF;" d="M349.443,232.619v184.596c-20.889,5.706-44.067,8.88-68.473,8.88
	c-26.219,0-51.023-3.671-73.107-10.207V233.935c22.072-6.535,46.887-10.196,73.107-10.196
	C305.375,223.74,328.554,226.913,349.443,232.619z"/>
<g>
	<ellipse style="fill:#495577;" cx="51.233" cy="289.728" rx="24.328" ry="35.182"/>
	<ellipse style="fill:#495577;" cx="51.233" cy="360.092" rx="24.328" ry="35.182"/>
</g>
<g>
	<circle style="fill:#EFEFEF;" cx="126.806" cy="148.148" r="22.854"/>
	<circle style="fill:#EFEFEF;" cx="454.132" cy="203.44" r="20.543"/>
	<circle style="fill:#EFEFEF;" cx="396.629" cy="112.386" r="18.246"/>
</g>
<circle style="fill:#E46A53;" cx="279.786" cy="324.915" r="43.127"/>
<circle style="fill:#61ACD2;" cx="279.786" cy="324.915" r="28.752"/>
</svg>
